<svg xmlns="http://www.w3.org/2000/svg" xmlns:xlink="http://www.w3.org/1999/xlink" version="1.1" width="256" height="256" viewBox="0 0 256 256" xml:space="preserve">

<defs>
</defs>
<g style="stroke: none; stroke-width: 0; stroke-dasharray: none; stroke-linecap: butt; stroke-linejoin: miter; stroke-miterlimit: 10; fill: none; fill-rule: nonzero; opacity: 1;" transform="translate(1.4065934065934016 1.4065934065934016) scale(2.81 2.81)" >
	<circle cx="45" cy="45" r="45" style="stroke: none; stroke-width: 1; stroke-dasharray: none; stroke-linecap: butt; stroke-linejoin: miter; stroke-miterlimit: 10; fill: rgb(213,213,213); fill-rule: nonzero; opacity: 1;" transform="  matrix(1 0 0 1 0 0) "/>
	<path d="M 33.719 31.763 c -0.618 0.542 -1.197 1.128 -1.732 1.752 c 2.593 2.605 4.464 6.58 5.093 11.182 h 2.494 c -0.503 -4.056 -1.895 -7.801 -4.043 -10.788 C 34.965 33.122 34.358 32.406 33.719 31.763" style="stroke: none; stroke-width: 1; stroke-dasharray: none; stroke-linecap: butt; stroke-linejoin: miter; stroke-miterlimit: 10; fill: rgb(0,0,0); fill-rule: nonzero; opacity: 1;" transform=" matrix(1 0 0 1 0 0) " stroke-linecap="round" />
	<path d="M 30.68 35.253 c -0.479 0.728 -0.905 1.494 -1.271 2.294 c 1.484 1.851 2.577 4.332 3.075 7.151 h 2.503 c -0.473 -3.029 -1.564 -5.818 -3.191 -8.077 C 31.442 36.131 31.069 35.675 30.68 35.253" style="stroke: none; stroke-width: 1; stroke-dasharray: none; stroke-linecap: butt; stroke-linejoin: miter; stroke-miterlimit: 10; fill: rgb(0,0,0); fill-rule: nonzero; opacity: 1;" transform=" matrix(1 0 0 1 0 0) " stroke-linecap="round" />
	<path d="M 27.857 44.698 h 2.511 c -0.362 -1.717 -0.991 -3.314 -1.861 -4.697 C 28.083 41.493 27.857 43.069 27.857 44.698" style="stroke: none; stroke-width: 1; stroke-dasharray: none; stroke-linecap: butt; stroke-linejoin: miter; stroke-miterlimit: 10; fill: rgb(0,0,0); fill-rule: nonzero; opacity: 1;" transform=" matrix(1 0 0 1 0 0) " stroke-linecap="round" />
	<path d="M 55.105 30.742 c -0.325 -0.235 -0.659 -0.458 -1.001 -0.67 c -0.156 0.163 -0.31 0.327 -0.462 0.495 c -1.999 2.219 -4.263 5.617 -5.462 10.396 c -0.367 -1.928 -0.884 -3.791 -1.541 -5.562 c 1.301 -2.913 2.918 -5.164 4.407 -6.828 c -0.401 -0.149 -0.809 -0.284 -1.224 -0.404 c -1.279 1.487 -2.623 3.383 -3.784 5.726 c -0.837 -1.945 -1.852 -3.762 -3.034 -5.409 c -0.193 -0.269 -0.389 -0.53 -0.588 -0.786 c -0.914 0.141 -1.804 0.355 -2.665 0.634 c 2.064 2.388 3.747 5.416 4.9 8.867 c -0.424 1.218 -0.792 2.525 -1.08 3.929 c -0.812 -3.705 -2.273 -7.105 -4.303 -9.932 c -0.519 -0.723 -1.067 -1.396 -1.639 -2.017 c -0.767 0.368 -1.503 0.791 -2.201 1.263 c 3.262 3.303 5.573 8.391 6.226 14.254 h 2.583 c 0.193 -1.987 0.547 -3.808 1.017 -5.468 c 0.455 1.741 0.781 3.572 0.96 5.468 h 2.495 c 0.738 -6.413 3.468 -10.731 5.815 -13.337 C 54.716 31.147 54.91 30.941 55.105 30.742" style="stroke: none; stroke-width: 1; stroke-dasharray: none; stroke-linecap: butt; stroke-linejoin: miter; stroke-miterlimit: 10; fill: rgb(0,0,0); fill-rule: nonzero; opacity: 1;" transform=" matrix(1 0 0 1 0 0) " stroke-linecap="round" />
	<path d="M 58.345 33.783 c -0.254 -0.309 -0.519 -0.608 -0.793 -0.899 c -2.65 2.715 -4.866 6.654 -5.557 11.813 h 1.199 c 0.708 -5.008 2.883 -8.411 4.762 -10.497 C 58.084 34.057 58.214 33.919 58.345 33.783" style="stroke: none; stroke-width: 1; stroke-dasharray: none; stroke-linecap: butt; stroke-linejoin: miter; stroke-miterlimit: 10; fill: rgb(0,0,0); fill-rule: nonzero; opacity: 1;" transform=" matrix(1 0 0 1 0 0) " stroke-linecap="round" />
	<path d="M 56.495 44.698 h 1.204 c 0.567 -3.104 1.845 -5.379 3.088 -6.948 c -0.177 -0.4 -0.369 -0.793 -0.574 -1.176 C 58.487 38.592 57.076 41.3 56.495 44.698" style="stroke: none; stroke-width: 1; stroke-dasharray: none; stroke-linecap: butt; stroke-linejoin: miter; stroke-miterlimit: 10; fill: rgb(0,0,0); fill-rule: nonzero; opacity: 1;" transform=" matrix(1 0 0 1 0 0) " stroke-linecap="round" />
	<path d="M 61.998 43.028 c -0.265 0.504 -0.484 1.06 -0.637 1.67 h 0.782 C 62.143 44.129 62.093 43.572 61.998 43.028" style="stroke: none; stroke-width: 1; stroke-dasharray: none; stroke-linecap: butt; stroke-linejoin: miter; stroke-miterlimit: 10; fill: rgb(0,0,0); fill-rule: nonzero; opacity: 1;" transform=" matrix(1 0 0 1 0 0) " stroke-linecap="round" />
	<path d="M 43.895 48.075 h -1.798 v 8.006 h 4.934 v -1.579 h -3.136" style="stroke: none; stroke-width: 1; stroke-dasharray: none; stroke-linecap: butt; stroke-linejoin: miter; stroke-miterlimit: 10; fill: rgb(0,0,0); fill-rule: nonzero; opacity: 1;" transform=" matrix(1 0 0 1 0 0) " stroke-linecap="round" />
	<path d="M 56.976 48.075 h -0.65 v 8.006 h 4.298 v -0.584 h -3.648" style="stroke: none; stroke-width: 1; stroke-dasharray: none; stroke-linecap: butt; stroke-linejoin: miter; stroke-miterlimit: 10; fill: rgb(0,0,0); fill-rule: nonzero; opacity: 1;" transform=" matrix(1 0 0 1 0 0) " stroke-linecap="round" />
	<path d="M 61.374 56.081 h 0.65 v -8.006 h -0.65 V 56.081 z" style="stroke: none; stroke-width: 1; stroke-dasharray: none; stroke-linecap: butt; stroke-linejoin: miter; stroke-miterlimit: 10; fill: rgb(0,0,0); fill-rule: nonzero; opacity: 1;" transform=" matrix(1 0 0 1 0 0) " stroke-linecap="round" />
	<path d="M 72.541 55.497 v -3.232 h 3.538 v -0.572 h -3.538 v -3.034 h 3.803 v -0.584 h -4.453 v 8.006 h 4.585 v -0.584" style="stroke: none; stroke-width: 1; stroke-dasharray: none; stroke-linecap: butt; stroke-linejoin: miter; stroke-miterlimit: 10; fill: rgb(0,0,0); fill-rule: nonzero; opacity: 1;" transform=" matrix(1 0 0 1 0 0) " stroke-linecap="round" />
	<path d="M 69.718 55.497 h -0.132 l -4.637 -7.422 H 63.78 v 8.006 h 0.648 v -7.422 h 0.158 l 4.637 7.422 h 1.144 v -8.006 h -0.648" style="stroke: none; stroke-width: 1; stroke-dasharray: none; stroke-linecap: butt; stroke-linejoin: miter; stroke-miterlimit: 10; fill: rgb(0,0,0); fill-rule: nonzero; opacity: 1;" transform=" matrix(1 0 0 1 0 0) " stroke-linecap="round" />
	<path d="M 21.647 54.502 h -0.134 l -1.319 -6.207 h -1.871 l -1.178 6.207 h -0.174 l -1.605 -6.427 h -1.841 l 1.974 8.006 h 2.758 l 0.991 -4.876 l 1.068 4.876 h 2.813 l 1.754 -8.006 h -1.849" style="stroke: none; stroke-width: 1; stroke-dasharray: none; stroke-linecap: butt; stroke-linejoin: miter; stroke-miterlimit: 10; fill: rgb(0,0,0); fill-rule: nonzero; opacity: 1;" transform=" matrix(1 0 0 1 0 0) " stroke-linecap="round" />
	<path d="M 54.006 49.194 c -0.853 -0.835 -1.973 -1.188 -3.257 -1.184 h -2.971 v 8.116 h 2.971 c 0.724 0 1.356 -0.111 1.897 -0.334 c 1.02 -0.412 1.795 -1.189 2.177 -2.177 c 0.213 -0.543 0.286 -1.106 0.269 -1.678 C 55.09 50.91 54.741 49.921 54.006 49.194 M 53.049 53.142 c -0.228 0.593 -0.648 1.014 -1.245 1.239 c -0.3 0.113 -0.64 0.17 -1.02 0.17 h -1.208 v -4.968 h 1.208 c 0.38 0 0.72 0.051 1.02 0.154 c 0.598 0.202 1.017 0.622 1.245 1.207 C 53.273 51.564 53.278 52.512 53.049 53.142" style="stroke: none; stroke-width: 1; stroke-dasharray: none; stroke-linecap: butt; stroke-linejoin: miter; stroke-miterlimit: 10; fill: rgb(0,0,0); fill-rule: nonzero; opacity: 1;" transform=" matrix(1 0 0 1 0 0) " stroke-linecap="round" />
	<path d="M 31.047 48.19 c -1.023 -0.476 -2.694 -0.475 -3.712 0 c -1.015 0.447 -1.775 1.261 -2.149 2.27 c -0.213 0.564 -0.285 1.134 -0.268 1.717 c 0.014 1.532 0.935 3.077 2.385 3.74 c 1.029 0.512 2.755 0.512 3.783 0 c 1.449 -0.662 2.371 -2.208 2.385 -3.74 c 0.046 -1.096 -0.326 -2.217 -1.085 -3.038 C 32.027 48.744 31.581 48.428 31.047 48.19 M 29.199 54.663 c -1.524 0 -2.4 -1.199 -2.4 -2.591 c 0 -1.444 0.821 -2.591 2.4 -2.591 c 1.338 0 2.4 0.923 2.4 2.591 C 31.599 53.472 30.706 54.663 29.199 54.663" style="stroke: none; stroke-width: 1; stroke-dasharray: none; stroke-linecap: butt; stroke-linejoin: miter; stroke-miterlimit: 10; fill: rgb(0,0,0); fill-rule: nonzero; opacity: 1;" transform=" matrix(1 0 0 1 0 0) " stroke-linecap="round" />
	<path d="M 40.396 52.347 c 0.298 -0.417 0.423 -1.036 0.4 -1.651 c 0 -0.592 -0.132 -1.087 -0.395 -1.486 c -0.623 -0.92 -1.706 -1.192 -2.862 -1.201 h -3.147 v 8.072 h 1.798 v -2.479 c 0.035 0 1.324 0.001 1.362 0 l 1.697 2.479 h 2.083 l -2.045 -2.867 C 39.763 53.021 40.133 52.732 40.396 52.347 M 38.759 51.492 c -0.236 0.414 -0.638 0.611 -1.13 0.609 H 36.19 v -2.517 h 1.439 c 0.263 0 0.49 0.004 0.68 0.11 c 0.19 0.106 0.34 0.256 0.45 0.45 C 38.974 50.511 38.981 51.116 38.759 51.492" style="stroke: none; stroke-width: 1; stroke-dasharray: none; stroke-linecap: butt; stroke-linejoin: miter; stroke-miterlimit: 10; fill: rgb(0,0,0); fill-rule: nonzero; opacity: 1;" transform=" matrix(1 0 0 1 0 0) " stroke-linecap="round" />
</g>
</svg>
